<svg version="1.1" id="Layer_1" xmlns="http://www.w3.org/2000/svg" xmlns:xlink="http://www.w3.org/1999/xlink" x="0px" y="0px"
	 width="100%" viewBox="0 0 67 88" enable-background="new 0 0 67 88" xml:space="preserve">
<path fill="#35E4FC" opacity="1.000000" stroke="none" 
	d="
M68.000000,52.000000 
	C68.000000,55.030594 68.000000,58.061188 67.576469,61.545654 
	C63.706436,61.005814 60.259933,60.012093 56.702362,58.704075 
	C55.680099,57.735825 54.704594,56.443283 53.867741,56.527554 
	C46.220478,57.297646 38.227325,56.546394 30.963333,61.009155 
	C30.039434,59.419029 29.145844,57.992413 29.072199,56.524662 
	C28.866173,52.418415 29.102730,48.291889 28.973259,44.179394 
	C28.793573,38.471992 28.439537,32.770081 28.095772,26.796299 
	C27.744070,26.084694 27.456743,25.642609 27.085857,24.725979 
	C27.002296,18.212397 27.002296,12.173357 27.002296,5.128686 
	C31.267094,7.808383 34.570232,9.883840 38.009041,12.279181 
	C43.411968,18.953594 48.663509,25.321367 53.981018,31.633564 
	C54.344727,32.065304 55.202671,32.080692 55.892555,32.640827 
	C58.072414,37.240509 59.963032,41.625309 62.395256,45.685688 
	C63.816452,48.058250 66.102844,49.912544 68.000000,52.000000 
z"/>
<path fill="#000000" opacity="1.000000" stroke="none" 
	d="
M37.873371,11.959299 
	C34.570232,9.883840 31.267094,7.808383 27.002296,5.128686 
	C27.002296,12.173357 27.002296,18.212397 26.902859,24.983591 
	C26.186665,26.444427 25.569906,27.173109 24.639566,28.039562 
	C23.197073,29.561846 21.932974,30.858652 20.966434,32.348503 
	C18.718567,35.813423 16.488213,39.301403 14.482878,42.909058 
	C11.868820,47.611820 9.610890,52.514431 6.946410,57.186592 
	C5.195735,60.256393 2.997698,63.071072 1.000000,66.000000 
	C1.000000,44.416817 1.000000,22.833632 1.000000,1.000000 
	C17.020025,1.000000 33.041355,1.000000 49.853737,1.250116 
	C46.387653,4.986588 42.130512,8.472943 37.873371,11.959299 
z"/>
<path fill="#000000" opacity="1.000000" stroke="none" 
	d="
M56.813431,59.018375 
	C60.259933,60.012093 63.706436,61.005814 67.576469,61.999763 
	C68.000000,70.960899 68.000000,79.921799 68.000000,88.941345 
	C45.666706,88.941345 23.333370,88.941345 1.000000,88.941345 
	C1.000000,85.259811 1.000000,81.609085 1.371314,77.472641 
	C8.692010,71.846352 16.542551,69.650330 25.472416,69.903862 
	C26.539827,69.933014 27.255655,69.890518 28.412437,69.920418 
	C39.308430,68.993813 47.166504,75.263535 55.717350,80.806747 
	C55.717350,73.152786 55.696728,66.714241 55.764389,60.276611 
	C55.768833,59.853569 56.448067,59.437622 56.813431,59.018375 
z"/>
<path fill="#386CFB" opacity="1.000000" stroke="none" 
	d="
M56.702362,58.704075 
	C56.448067,59.437622 55.768833,59.853569 55.764389,60.276611 
	C55.696728,66.714241 55.717350,73.152786 55.717350,80.806747 
	C47.166504,75.263535 39.308430,68.993813 28.214684,69.725136 
	C26.757593,69.582382 25.939213,69.707298 25.120832,69.832214 
	C16.542551,69.650330 8.692010,71.846352 1.371314,76.993469 
	C1.000000,73.638710 1.000000,70.277428 1.000000,66.458069 
	C2.997698,63.071072 5.195735,60.256393 6.946410,57.186592 
	C9.610890,52.514431 11.868820,47.611820 14.482878,42.909058 
	C16.488213,39.301403 18.718567,35.813423 20.966434,32.348503 
	C21.932974,30.858652 23.197073,29.561846 24.887541,28.346149 
	C25.966917,31.324993 26.802340,34.119198 26.943325,36.948009 
	C27.375429,45.618076 27.541048,54.301422 28.046600,63.178261 
	C29.311237,62.635910 30.339567,61.894897 31.367897,61.153885 
	C38.227325,56.546394 46.220478,57.297646 53.867741,56.527554 
	C54.704594,56.443283 55.680099,57.735825 56.702362,58.704075 
z"/>
<path fill="#000000" opacity="1.000000" stroke="none" 
	d="
M68.000000,51.531342 
	C66.102844,49.912544 63.816452,48.058250 62.395256,45.685688 
	C59.963032,41.625309 58.072414,37.240509 55.966846,32.149765 
	C55.986225,21.205057 55.993111,11.102529 56.000000,1.000000 
	C59.972012,1.000000 63.944027,1.000000 68.000000,1.000000 
	C68.000000,17.687479 68.000000,34.375080 68.000000,51.531342 
M57.000000,22.426281 
	C57.000000,25.369600 57.000000,28.312922 57.000000,31.256241 
	C57.246342,31.254021 57.492680,31.251802 57.739021,31.249582 
	C57.739021,21.748058 57.739021,12.246536 57.739021,2.745014 
	C57.492680,2.740189 57.246342,2.735364 57.000000,2.730540 
	C57.000000,8.969679 57.000000,15.208817 57.000000,22.426281 
z"/>
<path fill="#376CFA" opacity="1.000000" stroke="none" 
	d="
M55.571537,1.000000 
	C55.993111,11.102529 55.986225,21.205057 55.905052,31.798649 
	C55.202671,32.080692 54.344727,32.065304 53.981018,31.633564 
	C48.663509,25.321367 43.411968,18.953594 38.009041,12.279182 
	C42.130512,8.472943 46.387653,4.986588 50.322395,1.250116 
	C51.714359,1.000000 53.428715,1.000000 55.571537,1.000000 
z"/>
<path fill="#236AEF" opacity="1.000000" stroke="none" 
	d="
M27.810295,62.979607 
	C27.541048,54.301422 27.375429,45.618076 26.943325,36.948009 
	C26.802340,34.119198 25.966917,31.324993 25.201122,28.208374 
	C25.569906,27.173109 26.186665,26.444427 26.986420,25.458134 
	C27.456743,25.642609 27.744070,26.084694 28.037136,27.255756 
	C27.965347,39.649693 27.887821,51.314648 27.810295,62.979607 
z"/>
<path fill="#45E1FF" opacity="1.000000" stroke="none" 
	d="
M28.046604,63.178261 
	C27.887821,51.314648 27.965347,39.649693 28.101509,27.525276 
	C28.439537,32.770081 28.793573,38.471992 28.973259,44.179394 
	C29.102730,48.291889 28.866173,52.418415 29.072199,56.524662 
	C29.145844,57.992413 30.039434,59.419029 30.963333,61.009151 
	C30.339567,61.894897 29.311237,62.635910 28.046604,63.178261 
z"/>
<path fill="#0080FF" opacity="1.000000" stroke="none" 
	d="
M25.472416,69.903870 
	C25.939213,69.707298 26.757593,69.582382 27.773727,69.652748 
	C27.255655,69.890518 26.539827,69.933014 25.472416,69.903870 
z"/>
<path fill="#0080FF" opacity="1.000000" stroke="none" 
	d="
M57.000000,21.937119 
	C57.000000,15.208817 57.000000,8.969679 57.000000,2.730540 
	C57.246342,2.735364 57.492680,2.740189 57.739021,2.745014 
	C57.739021,12.246536 57.739021,21.748058 57.739021,31.249582 
	C57.492680,31.251802 57.246342,31.254021 57.000000,31.256241 
	C57.000000,28.312922 57.000000,25.369600 57.000000,21.937119 
z"/>
</svg>