<?xml version="1.0" standalone="no"?>
<!DOCTYPE svg PUBLIC "-//W3C//DTD SVG 20010904//EN"
 "http://www.w3.org/TR/2001/REC-SVG-20010904/DTD/svg10.dtd">
<svg version="1.0" xmlns="http://www.w3.org/2000/svg"
 width="228.000000pt" height="62.000000pt" viewBox="0 0 228.000000 62.000000"
 preserveAspectRatio="xMidYMid meet">

<g transform="translate(0.000000,62.000000) scale(0.100000,-0.100000)"
fill="#000000" stroke="none">
<path d="M317 569 l-47 -41 47 -56 c26 -31 50 -61 54 -66 4 -5 8 39 7 98 0 58
-3 106 -6 106 -4 0 -28 -18 -55 -41z"/>
<path d="M142 381 c-44 -62 -115 -204 -127 -253 l-7 -26 43 21 c84 41 207 33
283 -18 20 -14 38 -25 40 -25 2 0 4 34 5 75 l2 75 -44 0 c-27 0 -63 -10 -93
-25 -27 -14 -50 -25 -51 -25 -1 0 -4 59 -5 132 l-3 131 -43 -62z"/>
</g>
</svg>
